<svg width="1400" height="960" xmlns="http://www.w3.org/2000/svg"><rect width="1400" height="960" fill="#0c0c0e" rx="20"></rect><defs><pattern id="grid2" width="40" height="40" patternUnits="userSpaceOnUse"><path d="M 40 0 L 0 0 0 40" fill="none" stroke="rgba(255,255,255,0.015)" stroke-width="0.5"></path></pattern></defs><rect width="1400" height="960" fill="url(#grid2)"></rect><text x="72" y="52" font-family="'Inter', -apple-system, system-ui, sans-serif" font-size="22" font-weight="700" fill="#f3f3f5" letter-spacing="-0.03em">Deliberation Flow</text><text x="72" y="74" font-family="'Inter', -apple-system, system-ui, sans-serif" font-size="12" fill="#6a6a72">Three stages from question to synthesis — every councillor contributes, one chairman decides</text><line x1="72" y1="92" x2="1328" y2="92" stroke="rgba(255,255,255,0.06)" stroke-width="1"></line><rect x="520" y="108" width="360" height="40" rx="20" fill="#1c1c21" stroke="#8c7dff" stroke-width="1" opacity="0.8"></rect><text x="700" y="133" font-family="'Inter', -apple-system, system-ui, sans-serif" font-size="11.5" font-weight="500" fill="#f3f3f5" text-anchor="middle">User's question</text><g><line x1="700" y1="148" x2="700" y2="164" stroke="rgba(140,125,255,0.45)" stroke-width="1.5"></line><polygon points="700,170 696,163 704,163" fill="rgba(140,125,255,0.45)"></polygon></g><g><rect x="72" y="176" width="36" height="36" rx="18" fill="#8c7dff"></rect><text x="90" y="200" font-family="'Inter', -apple-system, system-ui, sans-serif" font-size="16" font-weight="700" fill="#fff" text-anchor="middle">1</text><text x="122" y="192" font-family="'Inter', -apple-system, system-ui, sans-serif" font-size="15" font-weight="700" fill="#f3f3f5" letter-spacing="-0.02em">First Opinions</text><text x="122" y="210" font-family="'Inter', -apple-system, system-ui, sans-serif" font-size="10" fill="#6a6a72">Each councillor answers the question independently, in parallel isolation</text></g><g><rect x="102" y="224" width="220" height="72" rx="12" fill="#151518" stroke="#d4855a" stroke-width="1" opacity="0.9"></rect><rect x="102" y="224" width="220" height="72" rx="12" fill="#d4855a" opacity="0.03"></rect><g><circle cx="120" cy="252" r="12.5" fill="#d4855a" opacity="0.06"></circle><circle cx="120" cy="252" r="7.5" fill="#d4855a" opacity="0.12"></circle><circle cx="120" cy="252" r="5" fill="#d4855a"></circle></g><text x="136" y="250" font-family="'Inter', -apple-system, system-ui, sans-serif" font-size="11" font-weight="600" fill="#f3f3f5">Claude Sonnet 4.6</text><text x="136" y="268" font-family="'Inter', -apple-system, system-ui, sans-serif" font-size="9" fill="#6a6a72">Anthropic · task</text><text x="136" y="284" font-family="'Inter', -apple-system, system-ui, sans-serif" font-size="8.5" fill="#6a6a72" opacity="0.7">Independent response</text></g><g><rect x="346" y="224" width="220" height="72" rx="12" fill="#151518" stroke="#10a37f" stroke-width="1" opacity="0.9"></rect><rect x="346" y="224" width="220" height="72" rx="12" fill="#10a37f" opacity="0.03"></rect><g><circle cx="364" cy="252" r="12.5" fill="#10a37f" opacity="0.06"></circle><circle cx="364" cy="252" r="7.5" fill="#10a37f" opacity="0.12"></circle><circle cx="364" cy="252" r="5" fill="#10a37f"></circle></g><text x="380" y="250" font-family="'Inter', -apple-system, system-ui, sans-serif" font-size="11" font-weight="600" fill="#f3f3f5">GPT-5.2</text><text x="380" y="268" font-family="'Inter', -apple-system, system-ui, sans-serif" font-size="9" fill="#6a6a72">OpenAI · task</text><text x="380" y="284" font-family="'Inter', -apple-system, system-ui, sans-serif" font-size="8.5" fill="#6a6a72" opacity="0.7">Independent response</text></g><g><rect x="590" y="224" width="220" height="72" rx="12" fill="#151518" stroke="#0668E1" stroke-width="1" opacity="0.9"></rect><rect x="590" y="224" width="220" height="72" rx="12" fill="#0668E1" opacity="0.03"></rect><g><circle cx="608" cy="252" r="12.5" fill="#0668E1" opacity="0.06"></circle><circle cx="608" cy="252" r="7.5" fill="#0668E1" opacity="0.12"></circle><circle cx="608" cy="252" r="5" fill="#0668E1"></circle></g><text x="624" y="250" font-family="'Inter', -apple-system, system-ui, sans-serif" font-size="11" font-weight="600" fill="#f3f3f5">Llama 3.3 70B</text><text x="624" y="268" font-family="'Inter', -apple-system, system-ui, sans-serif" font-size="9" fill="#6a6a72">Meta · github-models</text><text x="624" y="284" font-family="'Inter', -apple-system, system-ui, sans-serif" font-size="8.5" fill="#6a6a72" opacity="0.7">Independent response</text></g><g><rect x="834" y="224" width="220" height="72" rx="12" fill="#151518" stroke="#4a90d9" stroke-width="1" opacity="0.9"></rect><rect x="834" y="224" width="220" height="72" rx="12" fill="#4a90d9" opacity="0.03"></rect><g><circle cx="852" cy="252" r="12.5" fill="#4a90d9" opacity="0.06"></circle><circle cx="852" cy="252" r="7.5" fill="#4a90d9" opacity="0.12"></circle><circle cx="852" cy="252" r="5" fill="#4a90d9"></circle></g><text x="868" y="250" font-family="'Inter', -apple-system, system-ui, sans-serif" font-size="11" font-weight="600" fill="#f3f3f5">DeepSeek V3</text><text x="868" y="268" font-family="'Inter', -apple-system, system-ui, sans-serif" font-size="9" fill="#6a6a72">DeepSeek · github-models</text><text x="868" y="284" font-family="'Inter', -apple-system, system-ui, sans-serif" font-size="8.5" fill="#6a6a72" opacity="0.7">Independent response</text></g><g><rect x="1078" y="224" width="220" height="72" rx="12" fill="#151518" stroke="#f7931a" stroke-width="1" opacity="0.9"></rect><rect x="1078" y="224" width="220" height="72" rx="12" fill="#f7931a" opacity="0.03"></rect><g><circle cx="1096" cy="252" r="12.5" fill="#f7931a" opacity="0.06"></circle><circle cx="1096" cy="252" r="7.5" fill="#f7931a" opacity="0.12"></circle><circle cx="1096" cy="252" r="5" fill="#f7931a"></circle></g><text x="1112" y="250" font-family="'Inter', -apple-system, system-ui, sans-serif" font-size="11" font-weight="600" fill="#f3f3f5">Mistral Medium</text><text x="1112" y="268" font-family="'Inter', -apple-system, system-ui, sans-serif" font-size="9" fill="#6a6a72">Mistral · github-models</text><text x="1112" y="284" font-family="'Inter', -apple-system, system-ui, sans-serif" font-size="8.5" fill="#6a6a72" opacity="0.7">Independent response</text></g><g><line x1="212" y1="296" x2="212" y2="318" stroke="rgba(140,125,255,0.45)" stroke-width="1.5"></line><polygon points="212,324 208,317 216,317" fill="rgba(140,125,255,0.45)"></polygon></g><g><line x1="456" y1="296" x2="456" y2="318" stroke="rgba(140,125,255,0.45)" stroke-width="1.5"></line><polygon points="456,324 452,317 460,317" fill="rgba(140,125,255,0.45)"></polygon></g><g><line x1="700" y1="296" x2="700" y2="318" stroke="rgba(140,125,255,0.45)" stroke-width="1.5"></line><polygon points="700,324 696,317 704,317" fill="rgba(140,125,255,0.45)"></polygon></g><g><line x1="944" y1="296" x2="944" y2="318" stroke="rgba(140,125,255,0.45)" stroke-width="1.5"></line><polygon points="944,324 940,317 948,317" fill="rgba(140,125,255,0.45)"></polygon></g><g><line x1="1188" y1="296" x2="1188" y2="318" stroke="rgba(140,125,255,0.45)" stroke-width="1.5"></line><polygon points="1188,324 1184,317 1192,317" fill="rgba(140,125,255,0.45)"></polygon></g><rect x="82" y="326" width="1236" height="36" rx="10" fill="#1c1c21" stroke="rgba(255,255,255,0.06)" stroke-width="1"></rect><rect x="82" y="326" width="1236" height="36" rx="10" fill="#8c7dff" opacity="0.03"></rect><text x="700" y="349" font-family="'Inter', -apple-system, system-ui, sans-serif" font-size="10" font-weight="500" fill="#8c7dff" text-anchor="middle">Responses anonymised → labelled as Response A, B, C, D, E</text><g><line x1="700" y1="362" x2="700" y2="382" stroke="rgba(140,125,255,0.45)" stroke-width="1.5"></line><polygon points="700,388 696,381 704,381" fill="rgba(140,125,255,0.45)"></polygon></g><g><rect x="72" y="394" width="36" height="36" rx="18" fill="#8c7dff"></rect><text x="90" y="418" font-family="'Inter', -apple-system, system-ui, sans-serif" font-size="16" font-weight="700" fill="#fff" text-anchor="middle">2</text><text x="122" y="410" font-family="'Inter', -apple-system, system-ui, sans-serif" font-size="15" font-weight="700" fill="#f3f3f5" letter-spacing="-0.02em">Peer Review &amp; Ranking</text><text x="122" y="428" font-family="'Inter', -apple-system, system-ui, sans-serif" font-size="10" fill="#6a6a72">Each councillor reads all anonymised responses and produces a ranked ordering with justification</text></g><g><rect x="102" y="442" width="220" height="72" rx="12" fill="#151518" stroke="#d4855a" stroke-width="1" opacity="0.9"></rect><rect x="102" y="442" width="220" height="72" rx="12" fill="#d4855a" opacity="0.03"></rect><g><circle cx="120" cy="470" r="12.5" fill="#d4855a" opacity="0.06"></circle><circle cx="120" cy="470" r="7.5" fill="#d4855a" opacity="0.12"></circle><circle cx="120" cy="470" r="5" fill="#d4855a"></circle></g><text x="136" y="468" font-family="'Inter', -apple-system, system-ui, sans-serif" font-size="11" font-weight="600" fill="#f3f3f5">Claude Sonnet 4.6</text><text x="136" y="486" font-family="'Inter', -apple-system, system-ui, sans-serif" font-size="9" fill="#6a6a72">Anthropic · task</text><text x="136" y="502" font-family="'Inter', -apple-system, system-ui, sans-serif" font-size="8.5" fill="#6a6a72" opacity="0.7">Ranks all responses</text></g><g><rect x="346" y="442" width="220" height="72" rx="12" fill="#151518" stroke="#10a37f" stroke-width="1" opacity="0.9"></rect><rect x="346" y="442" width="220" height="72" rx="12" fill="#10a37f" opacity="0.03"></rect><g><circle cx="364" cy="470" r="12.5" fill="#10a37f" opacity="0.06"></circle><circle cx="364" cy="470" r="7.5" fill="#10a37f" opacity="0.12"></circle><circle cx="364" cy="470" r="5" fill="#10a37f"></circle></g><text x="380" y="468" font-family="'Inter', -apple-system, system-ui, sans-serif" font-size="11" font-weight="600" fill="#f3f3f5">GPT-5.2</text><text x="380" y="486" font-family="'Inter', -apple-system, system-ui, sans-serif" font-size="9" fill="#6a6a72">OpenAI · task</text><text x="380" y="502" font-family="'Inter', -apple-system, system-ui, sans-serif" font-size="8.5" fill="#6a6a72" opacity="0.7">Ranks all responses</text></g><g><rect x="590" y="442" width="220" height="72" rx="12" fill="#151518" stroke="#0668E1" stroke-width="1" opacity="0.9"></rect><rect x="590" y="442" width="220" height="72" rx="12" fill="#0668E1" opacity="0.03"></rect><g><circle cx="608" cy="470" r="12.5" fill="#0668E1" opacity="0.06"></circle><circle cx="608" cy="470" r="7.5" fill="#0668E1" opacity="0.12"></circle><circle cx="608" cy="470" r="5" fill="#0668E1"></circle></g><text x="624" y="468" font-family="'Inter', -apple-system, system-ui, sans-serif" font-size="11" font-weight="600" fill="#f3f3f5">Llama 3.3 70B</text><text x="624" y="486" font-family="'Inter', -apple-system, system-ui, sans-serif" font-size="9" fill="#6a6a72">Meta · github-models</text><text x="624" y="502" font-family="'Inter', -apple-system, system-ui, sans-serif" font-size="8.5" fill="#6a6a72" opacity="0.7">Ranks all responses</text></g><g><rect x="834" y="442" width="220" height="72" rx="12" fill="#151518" stroke="#4a90d9" stroke-width="1" opacity="0.9"></rect><rect x="834" y="442" width="220" height="72" rx="12" fill="#4a90d9" opacity="0.03"></rect><g><circle cx="852" cy="470" r="12.5" fill="#4a90d9" opacity="0.06"></circle><circle cx="852" cy="470" r="7.5" fill="#4a90d9" opacity="0.12"></circle><circle cx="852" cy="470" r="5" fill="#4a90d9"></circle></g><text x="868" y="468" font-family="'Inter', -apple-system, system-ui, sans-serif" font-size="11" font-weight="600" fill="#f3f3f5">DeepSeek V3</text><text x="868" y="486" font-family="'Inter', -apple-system, system-ui, sans-serif" font-size="9" fill="#6a6a72">DeepSeek · github-models</text><text x="868" y="502" font-family="'Inter', -apple-system, system-ui, sans-serif" font-size="8.5" fill="#6a6a72" opacity="0.7">Ranks all responses</text></g><g><rect x="1078" y="442" width="220" height="72" rx="12" fill="#151518" stroke="#f7931a" stroke-width="1" opacity="0.9"></rect><rect x="1078" y="442" width="220" height="72" rx="12" fill="#f7931a" opacity="0.03"></rect><g><circle cx="1096" cy="470" r="12.5" fill="#f7931a" opacity="0.06"></circle><circle cx="1096" cy="470" r="7.5" fill="#f7931a" opacity="0.12"></circle><circle cx="1096" cy="470" r="5" fill="#f7931a"></circle></g><text x="1112" y="468" font-family="'Inter', -apple-system, system-ui, sans-serif" font-size="11" font-weight="600" fill="#f3f3f5">Mistral Medium</text><text x="1112" y="486" font-family="'Inter', -apple-system, system-ui, sans-serif" font-size="9" fill="#6a6a72">Mistral · github-models</text><text x="1112" y="502" font-family="'Inter', -apple-system, system-ui, sans-serif" font-size="8.5" fill="#6a6a72" opacity="0.7">Ranks all responses</text></g><line x1="212" y1="514" x2="700" y2="556" stroke="rgba(140,125,255,0.45)" stroke-width="1" opacity="0.4"></line><line x1="456" y1="514" x2="700" y2="556" stroke="rgba(140,125,255,0.45)" stroke-width="1" opacity="0.4"></line><line x1="700" y1="514" x2="700" y2="556" stroke="rgba(140,125,255,0.45)" stroke-width="1" opacity="0.4"></line><line x1="944" y1="514" x2="700" y2="556" stroke="rgba(140,125,255,0.45)" stroke-width="1" opacity="0.4"></line><line x1="1188" y1="514" x2="700" y2="556" stroke="rgba(140,125,255,0.45)" stroke-width="1" opacity="0.4"></line><rect x="560" y="556" width="280" height="40" rx="12" fill="#1c1c21" stroke="#8c7dff" stroke-width="1" stroke-dasharray="4,3"></rect><text x="700" y="581" font-family="'Inter', -apple-system, system-ui, sans-serif" font-size="10.5" font-weight="500" fill="#8c7dff" text-anchor="middle">Aggregate Rankings (Borda count)</text><g><line x1="700" y1="596" x2="700" y2="632" stroke="rgba(140,125,255,0.45)" stroke-width="1.5"></line><polygon points="700,638 696,631 704,631" fill="rgba(140,125,255,0.45)"></polygon></g><g><rect x="72" y="642" width="36" height="36" rx="18" fill="#8c7dff"></rect><text x="90" y="666" font-family="'Inter', -apple-system, system-ui, sans-serif" font-size="16" font-weight="700" fill="#fff" text-anchor="middle">3</text><text x="122" y="658" font-family="'Inter', -apple-system, system-ui, sans-serif" font-size="15" font-weight="700" fill="#f3f3f5" letter-spacing="-0.02em">Chairman Synthesis</text><text x="122" y="676" font-family="'Inter', -apple-system, system-ui, sans-serif" font-size="10" fill="#6a6a72">One authoritative model reads all responses + rankings, writes the definitive answer</text></g><g><rect x="430" y="690" width="540" height="140" rx="18" fill="none" stroke="#8c7dff" stroke-width="1" opacity="0.1"></rect><rect x="442" y="696" width="516" height="128" rx="16" fill="#151518" stroke="#8c7dff" stroke-width="2"></rect><rect x="442" y="696" width="516" height="128" rx="16" fill="#8c7dff" opacity="0.04"></rect><circle cx="700" cy="760" r="60" fill="#8c7dff" opacity="0.025"></circle><circle cx="700" cy="760" r="35" fill="#8c7dff" opacity="0.04"></circle><g><circle cx="474" cy="734" r="20" fill="#d4855a" opacity="0.06"></circle><circle cx="474" cy="734" r="12" fill="#d4855a" opacity="0.12"></circle><circle cx="474" cy="734" r="8" fill="#d4855a"></circle></g><text x="496" y="732" font-family="'Inter', -apple-system, system-ui, sans-serif" font-size="16" font-weight="700" fill="#f3f3f5" letter-spacing="-0.02em">Claude Opus 4.7</text><text x="496" y="756" font-family="'Inter', -apple-system, system-ui, sans-serif" font-size="11" fill="#c8c8cf">Chairman · Anthropic · task backend</text><line x1="474" y1="772" x2="926" y2="772" stroke="rgba(255,255,255,0.06)" stroke-width="0.5"></line><text x="496" y="796" font-family="'Inter', -apple-system, system-ui, sans-serif" font-size="10.5" fill="#6a6a72">Reads all responses + peer rankings → produces definitive synthesis</text><rect x="828" y="714" width="100" height="22" rx="6" fill="#8c7dff" opacity="0.12"></rect><text x="878" y="729" font-family="'Inter', -apple-system, system-ui, sans-serif" font-size="9" font-weight="600" fill="#8c7dff" text-anchor="middle">FINAL OUTPUT</text></g><g transform="translate(0, 840)"><line x1="700" y1="-8" x2="700" y2="10" stroke="rgba(140,125,255,0.45)" stroke-width="1.5"></line><line x1="700" y1="10" x2="500" y2="10" stroke="rgba(140,125,255,0.45)" stroke-width="1"></line><line x1="700" y1="10" x2="700" y2="10" stroke="rgba(140,125,255,0.45)" stroke-width="1"></line><line x1="700" y1="10" x2="900" y2="10" stroke="rgba(140,125,255,0.45)" stroke-width="1"></line><g><line x1="500" y1="10" x2="500" y2="24" stroke="rgba(140,125,255,0.45)" stroke-width="1"></line><polygon points="500,30 496,23 504,23" fill="rgba(140,125,255,0.45)"></polygon><rect x="440" y="34" width="120" height="28" rx="8" fill="#1c1c21" stroke="rgba(255,255,255,0.06)" stroke-width="1"></rect><text x="500" y="52" font-family="'Inter', -apple-system, system-ui, sans-serif" font-size="9.5" font-weight="500" fill="#c8c8cf" text-anchor="middle">CLI Response</text></g><g><line x1="700" y1="10" x2="700" y2="24" stroke="rgba(140,125,255,0.45)" stroke-width="1"></line><polygon points="700,30 696,23 704,23" fill="rgba(140,125,255,0.45)"></polygon><rect x="640" y="34" width="120" height="28" rx="8" fill="#1c1c21" stroke="rgba(255,255,255,0.06)" stroke-width="1"></rect><text x="700" y="52" font-family="'Inter', -apple-system, system-ui, sans-serif" font-size="9.5" font-weight="500" fill="#c8c8cf" text-anchor="middle">Browser UI</text></g><g><line x1="900" y1="10" x2="900" y2="24" stroke="rgba(140,125,255,0.45)" stroke-width="1"></line><polygon points="900,30 896,23 904,23" fill="rgba(140,125,255,0.45)"></polygon><rect x="840" y="34" width="120" height="28" rx="8" fill="#1c1c21" stroke="rgba(255,255,255,0.06)" stroke-width="1"></rect><text x="900" y="52" font-family="'Inter', -apple-system, system-ui, sans-serif" font-size="9.5" font-weight="500" fill="#c8c8cf" text-anchor="middle">Persisted to disk</text></g></g><g opacity="0.1" transform="translate(1240, 840) scale(1.0)"><path d="M18 68 A40 40 0 0 1 82 68" stroke="#8c7dff" stroke-width="1.5" stroke-linecap="round" fill="none"></path><circle cx="18" cy="68" r="3.5" fill="#8c7dff"></circle><circle cx="32" cy="50" r="3.5" fill="#8c7dff"></circle><circle cx="50" cy="43" r="3.5" fill="#8c7dff"></circle><circle cx="68" cy="50" r="3.5" fill="#8c7dff"></circle><circle cx="82" cy="68" r="3.5" fill="#8c7dff"></circle><circle cx="50" cy="74" r="10" fill="#8c7dff" opacity="0.06"></circle><circle cx="50" cy="74" r="6" fill="#8c7dff" opacity="0.12"></circle><circle cx="50" cy="74" r="3.5" fill="#8c7dff"></circle></g></svg>